<?xml version="1.0" encoding="UTF-8"?>
<svg id="Calque_2" data-name="Calque 2" xmlns="http://www.w3.org/2000/svg" viewBox="0 0 385.67 218.99">
  <defs>
    <style>
      .cls-1 {
        fill: #bf1b39;
      }

      .cls-2 {
        fill: #0d0d0d;
      }
    </style>
  </defs>
  <g id="Calque_1-2" data-name="Calque 1">
    <g>
      <path class="cls-1" d="M8.68,122.62c-2.54,0-4.62-1.63-6.24-4.89-1.62-3.26-2.43-6.66-2.43-10.19,0-1.3.18-2.88.53-4.75.35-1.86,1.09-3.63,2.22-5.31,1.13-1.68,2.68-3.07,4.66-4.19,1.97-1.12,4.66-1.68,8.04-1.68,4.37,0,7.37,1.72,9,5.17,1.62,3.45,2.43,7.03,2.43,10.75,0,2.05-.53,3.96-1.59,5.73-1.06,1.77-2.43,3.35-4.13,4.75-1.69,1.4-3.63,2.51-5.82,3.35-2.19.84-4.41,1.26-6.67,1.26ZM8.68,197.2c-2.54,0-4.62-1.63-6.24-4.89-1.62-3.26-2.43-6.66-2.43-10.2,0-1.3.18-2.88.53-4.75.35-1.86,1.09-3.63,2.22-5.31,1.13-1.68,2.68-3.07,4.66-4.19,1.97-1.12,4.66-1.68,8.04-1.68,4.37,0,7.37,1.72,9,5.17,1.62,3.45,2.43,7.03,2.43,10.75,0,2.05-.53,3.96-1.59,5.73-1.06,1.77-2.43,3.35-4.13,4.75s-3.63,2.51-5.82,3.35c-2.19.84-4.41,1.26-6.67,1.26Z"/>
      <path class="cls-1" d="M120.65,3.63c1.13-.93,2.65-1.77,4.55-2.51,1.9-.74,3.92-1.12,6.03-1.12,1.97,0,3.7.56,5.19,1.68,1.48,1.12,2.22,3.54,2.22,7.26,0,2.79-.57,6.24-1.69,10.33-1.13,4.1-2.89,9.64-5.29,16.62-2.4,6.98-5.5,15.69-9.31,26.12-3.81,10.43-8.4,23.28-13.76,38.55-5.22,15.08-10.05,29.19-14.5,42.32s-8.26,24.77-11.43,34.92c-3.18,10.15-5.68,18.53-7.51,25.14-1.84,6.61-2.75,10.94-2.75,12.99-1.55.93-3.21,1.68-4.97,2.23-1.77.56-3.42.84-4.97.84-1.98,0-3.78-.75-5.4-2.23-1.62-1.49-2.43-4.01-2.43-7.54,0-5.03,3.46-17.04,10.37-36.03,6.91-18.99,16.58-46.37,29-82.12,5.5-16.01,10.02-29.19,13.55-39.52,3.53-10.33,6.24-18.67,8.15-25,1.9-6.33,3.21-11.17,3.92-14.52.7-3.35,1.06-6.15,1.06-8.38Z"/>
      <path class="cls-1" d="M215.48,3.63c1.13-.93,2.65-1.77,4.55-2.51,1.91-.74,3.92-1.12,6.03-1.12,1.97,0,3.7.56,5.19,1.68,1.48,1.12,2.22,3.54,2.22,7.26,0,2.79-.57,6.24-1.69,10.33-1.13,4.1-2.89,9.64-5.29,16.62-2.4,6.98-5.5,15.69-9.31,26.12-3.81,10.43-8.4,23.28-13.76,38.55-5.22,15.08-10.05,29.19-14.5,42.32-4.44,13.13-8.25,24.77-11.43,34.92-3.17,10.15-5.68,18.53-7.51,25.14-1.84,6.61-2.75,10.94-2.75,12.99-1.55.93-3.21,1.68-4.97,2.23-1.77.56-3.42.84-4.97.84-1.98,0-3.78-.75-5.4-2.23-1.62-1.49-2.43-4.01-2.43-7.54,0-5.03,3.46-17.04,10.37-36.03,6.91-18.99,16.58-46.37,29-82.12,5.5-16.01,10.02-29.19,13.55-39.52,3.53-10.33,6.25-18.67,8.15-25,1.91-6.33,3.21-11.17,3.92-14.52.71-3.35,1.06-6.15,1.06-8.38Z"/>
      <path class="cls-2" d="M315.18,159.77c-3.25,4.29-6.81,8.66-10.69,13.13-3.88,4.47-7.94,8.57-12.17,12.29-4.23,3.73-8.61,6.75-13.12,9.08-4.52,2.33-9.03,3.49-13.55,3.49-7.06,0-12.1-2.61-15.13-7.82-3.04-5.21-4.55-11.64-4.55-19.27,0-9.12,1.41-18.34,4.23-27.65,2.82-9.31,6.74-17.64,11.75-25,5.01-7.35,10.9-13.36,17.67-18.02,6.77-4.65,14.18-6.98,22.23-6.98,4.37,0,8.25.7,11.64,2.1,3.39,1.4,6.38,3.21,9,5.45,2.61,2.23,4.8,4.75,6.56,7.54,1.76,2.79,3.28,5.59,4.55,8.38-.57,2.79-1.09,6.47-1.59,11.03-.5,4.57-.74,8.34-.74,11.31,0,5.03.39,9.73,1.16,14.11.77,4.38,1.94,8.2,3.49,11.45,1.55,3.26,3.56,5.87,6.03,7.82,2.47,1.96,5.32,2.93,8.57,2.93,5.22,0,10.09-1.3,14.61-3.91,4.51-2.61,9.1-6.98,13.76-13.13,1.97.93,3.6,2.14,4.87,3.63,1.27,1.49,1.9,3.26,1.9,5.31,0,1.49-.35,2.98-1.06,4.47-.71,1.49-2.05,3.07-4.02,4.75-6.63,5.77-13.02,10.15-19.16,13.13s-12.38,4.47-18.73,4.47c-8.33,0-14.57-2.89-18.73-8.66-4.16-5.77-7.09-14.25-8.79-25.42ZM315.18,125.69c-.85-4.28-2.86-8.28-6.03-12.01-3.17-3.72-6.95-5.59-11.32-5.59-3.95,0-7.97,1.44-12.07,4.33-4.09,2.89-7.8,6.8-11.11,11.73-3.32,4.94-6.03,10.66-8.15,17.18-2.12,6.52-3.17,13.41-3.17,20.67,0,2.05.14,4.15.42,6.28.28,2.14.77,4.1,1.48,5.87.7,1.77,1.66,3.21,2.86,4.33,1.2,1.12,2.78,1.68,4.76,1.68,4.23,0,8.71-2.14,13.44-6.42,4.73-4.28,9.13-9.4,13.23-15.36,4.09-5.96,7.55-11.96,10.37-18.02,2.82-6.05,4.58-10.94,5.29-14.66Z"/>
    </g>
  </g>
</svg>